<svg id="Message" xmlns="http://www.w3.org/2000/svg" width="22.5" height="20.25" viewBox="0 0 22.5 20.25">
  <path id="Message-2" data-name="Message" d="M16.806,20.25H5.692A5.693,5.693,0,0,1,0,14.569V5.681A5.693,5.693,0,0,1,5.692,0H16.806a5.728,5.728,0,0,1,4.028,1.667A5.638,5.638,0,0,1,22.5,5.681v8.888A5.694,5.694,0,0,1,16.806,20.25ZM4.539,5.9a.825.825,0,0,0-.6.253.859.859,0,0,0-.08,1.125l.148.146,5.118,3.994a3.52,3.52,0,0,0,2.194.764,3.577,3.577,0,0,0,2.2-.764L18.6,7.358l.09-.09a.871.871,0,0,0-.013-1.125.935.935,0,0,0-.594-.293h-.047a.855.855,0,0,0-.584.226l-5.073,4.05a1.761,1.761,0,0,1-1.121.406,1.791,1.791,0,0,1-1.129-.406L5.063,6.075A.875.875,0,0,0,4.539,5.9Z" fill="#414e5f"/>
</svg>
